<svg width="190" height="338" viewBox="0 0 190 338" fill="none" xmlns="http://www.w3.org/2000/svg">
<path d="M95.6178 337.69C43.9358 337.69 1.89355 295.644 1.89355 243.966C1.89355 239.031 2.27344 234.184 3.02304 229.554C9.94247 184.34 49.7529 150.211 95.6178 150.211C125.571 150.211 153.018 164.009 170.917 188.071C182.992 204.311 189.376 223.638 189.376 243.966C189.376 295.648 147.317 337.69 95.6178 337.69ZM95.6178 159.634C54.3658 159.634 18.5578 190.323 12.3303 231.016C11.6554 235.188 11.3196 239.533 11.3196 243.966C11.3196 290.451 49.1356 328.267 95.6212 328.267C142.107 328.267 179.957 290.448 179.957 243.966C179.957 225.68 174.218 208.297 163.36 193.695C147.256 172.048 122.57 159.634 95.6212 159.634H95.6178Z" fill="url(#paint0_linear_405_34)"/>
<path d="M1.89355 243.955V95.7059C1.89355 75.86 14.0772 59.0329 32.936 52.8394C51.7982 46.6492 71.5796 52.9751 83.346 68.9576L174.618 193.426L165.372 196.407L163.36 193.701C147.256 172.05 122.566 159.636 95.6178 159.636C54.3658 159.636 18.5578 190.326 12.3303 231.018L11.8487 234.162L1.89695 243.951L1.89355 243.955ZM47.5448 59.9284C43.4033 59.9284 39.4246 60.6305 35.8767 61.7939C24.0018 65.6912 11.3162 76.6503 11.3162 95.7059V203.106C26.6949 171.664 59.2501 150.217 95.6178 150.217C111.203 150.217 126.111 153.951 139.349 160.925L75.7584 74.544C67.8384 63.785 57.2523 59.9284 47.5448 59.9284Z" fill="url(#paint1_linear_405_34)"/>
<path d="M71.1285 159.637C32.9529 159.637 1.89355 128.578 1.89355 90.4054C1.89355 52.2332 32.9529 21.1738 71.1285 21.1738C109.304 21.1738 140.36 52.2332 140.36 90.4054C140.36 128.578 109.304 159.637 71.1285 159.637ZM71.1285 30.5931C38.1493 30.5931 11.3162 57.4228 11.3162 90.402C11.3162 123.381 38.1493 150.211 71.1285 150.211C104.108 150.211 130.937 123.381 130.937 90.402C130.937 57.4228 104.108 30.5931 71.1285 30.5931Z" fill="url(#paint2_linear_405_34)"/>
<path d="M12.3968 21.1685C18.1608 21.1685 22.8336 16.4958 22.8336 10.7317C22.8336 4.96764 18.1608 0.294922 12.3968 0.294922C6.63267 0.294922 1.95996 4.96764 1.95996 10.7317C1.95996 16.4958 6.63267 21.1685 12.3968 21.1685Z" fill="url(#paint3_linear_405_34)"/>
<path d="M95.6178 337.692C43.9358 337.692 1.89355 295.646 1.89355 243.968C1.89355 239.033 2.27344 234.186 3.02304 229.556C9.94247 184.342 49.7529 150.213 95.6178 150.213C125.571 150.213 153.018 164.011 170.917 188.073C182.992 204.313 189.376 223.64 189.376 243.968C189.376 295.65 147.317 337.692 95.6178 337.692ZM95.6178 159.636C54.3658 159.636 18.5578 190.325 12.3303 231.018C11.6554 235.19 11.3196 239.535 11.3196 243.968C11.3196 290.453 49.1356 328.269 95.6212 328.269C142.107 328.269 179.957 290.45 179.957 243.968C179.957 225.682 174.218 208.299 163.36 193.697C147.256 172.05 122.57 159.636 95.6212 159.636H95.6178Z" fill="#B2DBBB"/>
<path d="M10.9348 21.1685C16.6989 21.1685 21.3716 16.4958 21.3716 10.7317C21.3716 4.96764 16.6989 0.294922 10.9348 0.294922C5.17076 0.294922 0.498047 4.96764 0.498047 10.7317C0.498047 16.4958 5.17076 21.1685 10.9348 21.1685Z" fill="#B2DBBB"/>
<path d="M174.599 193.426H174.616L174.534 193.328L174.453 193.212C173.34 191.469 172.163 189.759 170.918 188.084C169.921 186.741 168.894 185.428 167.815 184.149L83.3436 68.9678C71.5738 52.9819 51.806 46.6595 32.9336 52.8496C14.0781 59.0398 1.89453 75.8737 1.89453 95.7094V243.989C1.89453 295.66 43.9402 337.706 95.612 337.706C147.284 337.706 189.38 295.66 189.38 243.989C189.38 225.845 184.286 208.499 174.609 193.429L174.599 193.426ZM95.6053 328.277C49.2281 328.277 11.48 290.63 11.3172 244.287V95.7094C11.3172 76.6538 23.9994 65.6981 35.8676 61.7974C39.4188 60.634 43.4043 59.9387 47.5356 59.9387C57.2465 59.9387 67.836 63.7884 75.7526 74.561L139.343 160.942L162.649 192.778L162.666 192.812C162.666 192.812 162.683 192.829 162.683 192.846C162.717 192.88 162.751 192.927 162.764 192.961L164.376 195.152C174.568 209.459 179.944 226.293 179.944 243.985C179.944 290.461 142.115 328.273 95.6053 328.273V328.277Z" fill="url(#paint4_linear_405_34)"/>
<path d="M162.644 192.775C161.664 191.513 160.687 190.285 159.639 189.088C160.666 190.282 161.664 191.513 162.644 192.775Z" fill="url(#paint5_linear_405_34)"/>
<path d="M71.1637 159.643C32.9881 159.643 1.92871 128.583 1.92871 90.4112C1.92871 52.2391 32.9881 21.1797 71.1637 21.1797C109.339 21.1797 140.395 52.2391 140.395 90.4112C140.395 128.583 109.339 159.643 71.1637 159.643ZM71.1637 30.5989C38.1845 30.5989 11.3513 57.4287 11.3513 90.4079C11.3513 123.387 38.1845 150.217 71.1637 150.217C104.143 150.217 130.973 123.387 130.973 90.4079C130.973 57.4287 104.143 30.5989 71.1637 30.5989Z" fill="#B2DBBB"/>
<defs>
<linearGradient id="paint0_linear_405_34" x1="-0.748713" y1="22.3373" x2="114.249" y2="286.686" gradientUnits="userSpaceOnUse">
<stop stop-color="#B2DBBB"/>
<stop offset="0.31" stop-color="#C7E8F0"/>
<stop offset="0.59" stop-color="#8FCCEB"/>
<stop offset="0.77" stop-color="#6ABDEA"/>
<stop offset="1" stop-color="#BE5CA2"/>
</linearGradient>
<linearGradient id="paint1_linear_405_34" x1="2.26666" y1="21.0304" x2="117.268" y2="285.38" gradientUnits="userSpaceOnUse">
<stop stop-color="#B2DBBB"/>
<stop offset="0.31" stop-color="#C7E8F0"/>
<stop offset="0.59" stop-color="#8FCCEB"/>
<stop offset="0.77" stop-color="#6ABDEA"/>
<stop offset="1" stop-color="#BE5CA2"/>
</linearGradient>
<linearGradient id="paint2_linear_405_34" x1="34.7913" y1="6.87708" x2="149.793" y2="271.226" gradientUnits="userSpaceOnUse">
<stop stop-color="#B2DBBB"/>
<stop offset="0.31" stop-color="#C7E8F0"/>
<stop offset="0.59" stop-color="#8FCCEB"/>
<stop offset="0.77" stop-color="#6ABDEA"/>
<stop offset="1" stop-color="#BE5CA2"/>
</linearGradient>
<linearGradient id="paint3_linear_405_34" x1="14.5506" y1="15.6839" x2="129.552" y2="280.03" gradientUnits="userSpaceOnUse">
<stop stop-color="#B2DBBB"/>
<stop offset="0.31" stop-color="#C7E8F0"/>
<stop offset="0.59" stop-color="#8FCCEB"/>
<stop offset="0.77" stop-color="#6ABDEA"/>
<stop offset="1" stop-color="#BE5CA2"/>
</linearGradient>
<linearGradient id="paint4_linear_405_34" x1="33.924" y1="71.4168" x2="119.874" y2="311.694" gradientUnits="userSpaceOnUse">
<stop stop-color="#B2DBBB"/>
<stop offset="0.31" stop-color="#C7E8F0"/>
<stop offset="0.77" stop-color="#6ABDEA"/>
<stop offset="1" stop-color="#BE5CA2"/>
</linearGradient>
<linearGradient id="paint5_linear_405_34" x1="108.808" y1="44.6238" x2="194.756" y2="284.905" gradientUnits="userSpaceOnUse">
<stop stop-color="#B2DBBB"/>
<stop offset="0.31" stop-color="#C7E8F0"/>
<stop offset="0.77" stop-color="#6ABDEA"/>
<stop offset="1" stop-color="#BE5CA2"/>
</linearGradient>
</defs>
</svg>
